PathFileType	4	(X/Y/Z)	D:\TRACE\spot_10-12-23\spot_arm_body_motion_3_9-platform.trc
DataRate	CameraRate	NumFrames	NumMarkers	Units	OrigDataRate	OrigDataStartFrame	OrigNumFrames
100.00	100.00	      67	5	mm	100.00	6126	      7000
Frame#	Time	Left_Front			Right_Front			Left_Aft			Right_Aft			Post			
		X1	Y1	Z1	X2	Y2	Z2	X3	Y3	Z3	X4	Y4	Z4	X5	Y5	Z5	

6126	61.250	-777.76007	-6.29438	-644.39203	795.05682	-1.05210	-637.57343	-694.75702	13.49297	493.15036	722.77313	19.89970	579.39435	4.89970	725.56598	-976.40192	
6127	61.260	-777.69672	-6.20182	-644.41187	795.19867	-1.02471	-637.57153	-694.56659	13.46252	493.22559	722.89417	19.83963	579.42279	5.07372	725.73096	-976.13049	
6128	61.270	-777.58716	-6.20063	-644.40350	795.26648	-1.01861	-637.56464	-694.48462	13.43085	493.20474	723.03766	19.82381	579.41888	5.10829	725.79456	-975.79742	
6129	61.280	-777.45746	-6.12220	-644.38953	795.33771	-1.01229	-637.58057	-694.32635	13.47314	493.21967	723.16016	19.83576	579.40527	4.88184	726.42444	-974.94122	
6130	61.290	-777.25928	-6.06020	-644.38293	795.37579	-0.98333	-637.60547	-694.18152	13.44696	493.21677	723.27136	19.83679	579.42017	5.09854	726.54541	-974.88025	
6131	61.300	-776.95929	-6.13457	-644.40204	795.51318	-0.96934	-637.64001	-693.99756	13.47018	493.21536	723.44434	19.83932	579.41925	5.56913	726.05707	-975.37195	
6132	61.310	-776.80341	-6.13634	-644.39734	795.70740	-1.05671	-637.62897	-693.80170	13.36916	493.21509	723.57062	19.85358	579.44110	5.70383	726.06097	-975.43622	
6133	61.320	-776.52814	-6.09898	-644.42975	795.96503	-1.08109	-637.65485	-693.56500	13.30690	493.21588	723.76874	19.81608	579.42035	5.74743	725.84369	-975.49469	
6134	61.330	-776.37305	-6.25279	-644.47736	796.24982	-0.99367	-637.60309	-693.42841	13.31431	493.21735	723.99762	19.82191	579.43555	6.75992	725.76575	-976.06873	
6135	61.340	-776.23682	-6.09984	-644.47437	796.65155	-1.02028	-637.46130	-693.19775	13.30804	493.25574	724.20538	19.81389	579.41541	6.52182	725.92688	-976.51440	
6136	61.350	-776.02850	-5.98778	-644.47809	796.64490	-0.98625	-637.55975	-692.95288	13.32571	493.35345	724.40057	19.66341	579.40564	5.95199	726.66925	-976.02332	
6137	61.360	-775.79803	-5.90439	-644.51782	796.93597	-0.78557	-637.48828	-692.69598	13.28155	493.39508	724.50946	19.68847	579.43176	6.98277	726.13794	-976.86371	
6138	61.370	-775.60052	-5.84765	-644.51947	797.08832	-0.71778	-637.46765	-692.59851	13.19732	493.35565	724.62561	19.60868	579.42932	6.97724	726.22614	-976.87427	
6139	61.380	-775.36218	-5.83697	-644.56122	797.19916	-0.63429	-637.50507	-692.45508	13.13063	493.38519	724.84955	19.39462	579.41431	7.67536	726.19934	-976.78888	
6140	61.390	-775.23822	-5.81490	-644.46362	797.36102	-0.58843	-637.44745	-692.38580	13.14134	493.33551	725.09070	19.46359	579.46155	7.90340	726.28241	-976.69208	
6141	61.400	-775.05951	-5.84635	-644.40527	797.68481	-0.52714	-637.36395	-692.25250	13.09180	493.37222	725.39148	19.38547	579.49323	8.08270	726.33472	-976.45453	
6142	61.410	-774.74329	-5.92693	-644.34937	797.82635	-0.44014	-637.37061	-692.09015	13.06879	493.36679	725.56952	19.31969	579.52124	8.09180	726.65002	-976.13824	
6143	61.420	-774.48004	-5.84730	-644.27380	798.01727	-0.42487	-637.38147	-691.81097	13.02810	493.40820	725.74713	19.36489	579.55347	9.67201	725.98602	-976.32104	
6144	61.430	-774.32043	-5.80480	-644.26471	798.20270	-0.43579	-637.39648	-691.51733	13.00633	493.40723	725.92151	19.30963	579.58380	8.48575	726.58575	-975.30981	
6145	61.440	-774.16260	-5.84208	-644.22766	798.65125	-0.47425	-637.26520	-691.34674	12.92846	493.42545	726.13275	19.27596	579.58545	8.73434	726.66003	-974.93146	
6146	61.450	-774.01654	-5.62791	-644.28156	798.90900	-0.41841	-637.27777	-691.09198	12.84857	493.47543	726.33820	19.30914	579.57971	8.94212	726.77368	-974.62396	
6147	61.460	-773.86554	-5.32489	-644.26526	799.20551	-0.34772	-637.25336	-690.91693	12.82442	493.48575	726.54541	19.27039	579.60339	9.24275	726.84845	-974.22412	
6148	61.470	-773.87335	-5.12011	-644.16449	799.29559	-0.31210	-637.24487	-690.69159	12.77967	493.51852	726.76038	19.17378	579.60107	9.52164	726.94830	-974.18030	
6149	61.480	-773.69629	-5.02242	-644.12378	799.54846	-0.26029	-637.15192	-690.48053	12.70063	493.56332	726.90564	19.14763	579.61420	11.81511	726.19269	-975.06079	
6150	61.490	-773.50256	-4.98421	-644.12561	799.73499	-0.19974	-637.11578	-690.29919	12.67705	493.61197	727.10748	19.02892	579.64038	11.84761	726.26141	-975.13007	
6151	61.500	-773.24463	-5.08212	-644.19666	799.86145	-0.11824	-637.13470	-690.09613	12.69245	493.67145	727.26062	18.94679	579.68176	10.01820	727.23041	-974.60699	
6152	61.510	-773.02148	-4.98744	-644.20679	800.12518	-0.08393	-636.99615	-689.93542	12.74961	493.65060	727.44702	18.93533	579.69379	10.15827	727.28015	-974.84131	
6153	61.520	-772.59845	-5.09577	-644.25262	800.12006	-0.02730	-637.11029	-689.69257	12.66970	493.67499	727.59125	18.90793	579.71741	10.34890	727.20905	-974.85669	
6154	61.530	-772.35675	-5.11486	-644.26935	800.27997	-0.01009	-637.06201	-689.44928	12.65324	493.68066	727.71405	18.87396	579.72449	10.59487	727.41956	-975.05115	
6155	61.540	-771.95978	-5.21995	-644.28479	800.47083	0.09008	-637.10944	-689.21545	12.58200	493.68246	727.88525	18.83455	579.78900	10.89254	727.53613	-975.08936	
6156	61.550	-771.77374	-5.19256	-644.27863	800.64685	0.18798	-637.09552	-688.98309	12.46678	493.70490	728.16992	18.76368	579.83014	13.05727	726.93854	-975.93506	
6157	61.560	-771.48676	-5.14813	-644.29834	800.75708	0.27184	-637.14063	-688.84363	12.47222	493.71628	728.38983	18.72173	579.87225	11.18478	727.83606	-974.90643	
6158	61.570	-771.68030	-4.76569	-644.16010	801.02264	0.35396	-637.16052	-688.64404	12.45819	493.71689	728.60693	18.68967	579.88458	11.39211	727.97040	-974.69525	
6159	61.580	-771.54065	-4.72325	-644.14264	801.21240	0.38332	-637.22522	-688.46155	12.46888	493.58496	728.86188	18.66422	579.94299	11.43328	728.00024	-974.53772	
6160	61.590	-771.38806	-4.63654	-644.10266	801.57727	0.42868	-637.08514	-688.24036	12.39508	493.58078	729.09027	18.58881	579.95251	11.64369	728.02789	-974.23547	
6161	61.600	-771.28320	-4.48424	-644.07147	801.82483	0.41683	-637.08710	-688.05157	12.32079	493.64984	729.31708	18.53030	579.99084	11.85084	728.12628	-973.91315	
6162	61.610	-771.06122	-4.34023	-643.97748	801.93469	0.48384	-637.05713	-687.90613	12.26025	493.65280	729.45447	18.43734	580.01410	11.99859	728.29303	-973.60059	
6163	61.620	-770.92474	-4.17616	-644.00757	801.97949	0.60878	-637.02649	-687.82373	12.17092	493.69452	729.61017	18.30526	579.97284	14.32062	727.65320	-974.25513	
6164	61.630	-770.75592	-4.10844	-644.00104	802.13739	0.75856	-636.92627	-687.78534	12.14494	493.70499	729.72699	18.26114	580.01941	12.14584	728.62573	-973.12842	
6165	61.640	-770.65411	-4.03224	-643.95880	802.36432	0.86103	-636.81750	-687.75677	12.09251	493.70343	729.81915	18.20374	580.01685	12.60761	728.70807	-972.99792	
6166	61.650	-770.33197	-3.96304	-643.94189	802.54492	1.08889	-636.77087	-687.66425	12.01890	493.75937	729.94348	18.11855	579.97296	12.85032	728.73505	-972.94110	
6167	61.660	-770.09686	-3.83479	-643.87653	802.59283	1.24192	-636.85791	-687.51611	11.92672	493.76468	730.05603	18.03848	580.01953	12.88994	728.81616	-972.95197	
6168	61.670	-769.92780	-3.90770	-643.83344	802.77747	0.93444	-636.80267	-687.35742	11.94860	493.78934	730.13562	18.04597	580.02521	13.04948	728.98413	-973.00720	
6169	61.680	-769.95093	-3.99825	-643.86017	802.75793	0.92593	-636.84161	-687.18475	11.76318	493.81589	730.27496	18.00333	580.03473	14.89203	728.55072	-973.93921	
6170	61.690	-769.78107	-3.99227	-643.90778	802.82159	1.29298	-636.72974	-687.10785	11.65998	493.84100	730.26453	17.95564	580.05939	12.80224	729.41119	-972.74976	
6171	61.700	-769.70496	-3.89586	-643.88306	802.87421	1.36012	-636.75085	-686.98718	11.61108	493.84595	730.39825	17.74592	580.11615	13.45247	729.34003	-973.22327	
6172	61.710	-769.73328	-3.67874	-643.79626	802.90271	1.34355	-636.74103	-686.88019	11.55942	493.87701	730.47424	17.66915	580.13934	13.48260	729.58990	-973.18439	
6173	61.720	-769.59119	-3.49744	-643.82031	803.06171	1.48772	-636.67566	-686.73627	11.47148	493.88358	730.61786	17.69367	580.16034	13.53279	729.69727	-973.08258	
6174	61.730	-769.51788	-3.40303	-643.82678	803.17566	1.75335	-636.71936	-686.67346	11.46173	493.96103	730.67279	17.62481	580.18726	13.51287	729.80609	-973.02039	
6175	61.740	-769.56268	-3.60608	-643.70154	803.20624	1.82350	-636.73889	-686.60352	11.40250	494.00616	730.77911	17.47831	580.26959	13.62356	729.96777	-972.77454	
6176	61.750	-769.46564	-3.50204	-643.71936	803.20575	1.70706	-636.78406	-686.63721	11.29804	493.91925	730.78217	17.37390	580.30865	14.11164	729.76404	-972.65112	
6177	61.760	-769.34241	-3.06437	-643.71051	803.35016	1.82379	-636.73334	-686.51477	11.14103	493.98260	730.86670	17.26000	580.32831	13.48264	730.30267	-972.09235	
6178	61.770	-769.26215	-2.77872	-643.67059	803.34753	2.05031	-636.74921	-686.48444	11.20005	494.02740	730.93219	17.28945	580.36621	13.66410	730.49432	-971.80756	
6179	61.780	-769.22235	-2.80372	-643.64008	803.34595	2.16884	-636.78857	-686.41205	11.18894	494.09656	730.99146	17.26925	580.36658	13.69009	730.80469	-971.48077	
6180	61.790	-769.25885	-2.80738	-643.66193	803.37915	2.15282	-636.77466	-686.38171	11.11329	494.05997	731.06543	17.15852	580.38489	13.63927	730.90137	-971.29700	
6181	61.800	-769.15765	-2.79448	-643.61896	803.33087	2.23969	-636.81799	-686.38599	10.98813	494.08633	731.03577	17.01556	580.43048	13.62604	730.98645	-971.06525	
6182	61.810	-769.12726	-2.47677	-643.69769	803.35394	2.32913	-636.86945	-686.37573	10.88947	494.08130	731.05798	16.91742	580.46283	13.78177	731.12366	-970.87756	
6183	61.820	-769.20685	-2.20376	-643.65625	803.33215	2.45367	-636.88965	-686.32605	10.82955	494.19247	731.07568	16.93031	580.48907	13.67345	731.47961	-970.69165	
6184	61.830	-769.13397	-2.20528	-643.67169	803.49805	2.70926	-636.73773	-686.16833	10.74851	494.45398	731.12744	16.92135	580.52441	13.81213	731.55109	-970.89850	
6185	61.840	-769.10840	-2.30325	-643.64288	803.51898	2.94899	-636.65479	-686.24689	10.73632	494.51001	731.13745	16.83231	580.53339	13.70512	731.61871	-970.98895	
6186	61.850	-769.18628	-2.14753	-643.58148	803.41138	3.04647	-636.75720	-686.20361	10.63972	494.51147	731.02563	16.62630	580.48792	13.66564	731.71942	-971.06348	
6187	61.860	-769.30103	-1.82012	-643.60022	803.60168	3.06033	-636.66815	-686.20398	10.47800	494.56760	731.06934	16.50827	580.52588	13.61277	731.82385	-971.08600	
6188	61.870	-769.35345	-1.65286	-643.58118	803.59369	3.22113	-636.62830	-686.15680	10.43595	494.56775	731.10040	16.43668	580.58441	13.68192	731.90790	-970.99609	
6189	61.880	-769.49976	-1.42008	-643.52429	803.39435	3.38446	-636.70215	-686.23584	10.47613	494.66278	731.10016	16.42436	580.61414	13.90811	732.02460	-970.79742	
6190	61.890	-769.51367	-1.36665	-643.47162	803.42035	3.50320	-636.61121	-686.26489	10.52457	494.57336	731.10626	16.31812	580.64581	13.80363	732.20209	-970.69196	
6191	61.900	-769.52509	-1.27059	-643.42218	803.42682	3.61270	-636.54755	-686.25372	10.40894	494.62384	731.09436	16.15042	580.63324	13.81275	732.38092	-970.54242	
6192	61.910	-769.17310	-1.51136	-643.50690	803.56543	3.61132	-636.45306	-686.17969	10.16291	494.62527	731.13306	16.00141	580.64709	13.80101	732.49139	-970.09937	
